<svg version="1.0" xmlns="http://www.w3.org/2000/svg" width="433" height="478" viewBox="0 0 433.000000 478.000000" preserveAspectRatio="xMidYMid meet" style="fill:blue">

<g transform="translate(0.000000,478.000000) scale(0.100000,-0.100000)" fill="#508eda" stroke="none">
<path d="M1425 4729 c-30 -57 -56 -184 -61 -304 -17 -344 105 -719 278 -857
60 -48 95 -62 249 -102 74 -19 179 -51 234 -71 55 -20 106 -37 113 -37 6 -1
12 -5 12 -10 0 -4 4 -8 10 -8 17 0 173 -78 258 -129 49 -29 90 -48 100 -44 13
4 14 3 4 -5 -10 -7 -1 -18 40 -48 29 -21 70 -53 91 -71 21 -19 43 -31 49 -27
6 4 8 3 5 -3 -4 -6 25 -40 63 -78 43 -41 70 -61 70 -51 0 9 4 16 8 16 5 0 19
20 32 45 12 24 30 52 39 62 9 10 24 31 35 47 10 15 52 64 93 107 l75 78 -39
63 c-47 78 -184 222 -278 292 -65 49 -264 178 -345 223 -183 103 -271 156
-395 239 -190 127 -332 247 -492 417 -33 36 -64 62 -68 59 -4 -4 -5 -2 -3 4 5
16 -46 85 -59 79 -7 -2 -15 1 -19 7 -5 7 -2 8 6 3 7 -4 11 -4 9 2 -8 22 -84
132 -91 133 -4 0 -15 -14 -23 -31z" fill="#508eda"></path>
<path d="M5 3874 c14 -228 51 -404 127 -614 62 -171 238 -498 260 -484 7 4 8
2 4 -5 -28 -45 512 -642 557 -614 6 3 7 2 4 -4 -7 -11 54 -65 137 -124 203
-142 305 -203 476 -289 69 -35 136 -69 150 -76 69 -34 264 -104 278 -99 9 3
13 3 9 -1 -4 -4 25 -20 65 -34 40 -15 73 -31 73 -36 -1 -14 -44 -146 -59 -179
-8 -16 -22 -48 -32 -70 -10 -22 -48 -69 -83 -105 -36 -36 -64 -69 -63 -73 1
-5 -1 -6 -6 -3 -5 3 -37 -10 -73 -28 -118 -59 -244 -89 -460 -106 -73 -6 -194
-10 -269 -9 -147 2 -168 -1 -250 -38 -88 -39 -140 -128 -125 -212 10 -60 36
-132 45 -126 5 3 12 0 16 -6 4 -8 3 -9 -4 -5 -17 10 -15 1 9 -47 47 -92 161
-223 259 -297 25 -19 47 -37 50 -41 3 -3 41 -27 85 -52 247 -141 426 -122 563
61 28 37 62 80 76 96 14 16 23 33 19 39 -3 6 -1 7 5 3 6 -3 21 4 34 17 37 38
109 92 153 115 59 30 92 39 277 67 194 30 286 50 453 98 346 99 618 274 781
502 63 89 128 220 118 237 -4 6 -3 8 3 5 10 -7 51 116 77 233 18 78 42 294 51
445 26 449 75 637 202 764 67 67 114 93 230 131 l82 26 -25 27 c-14 15 -30 24
-36 21 -6 -4 -8 -3 -4 4 8 14 -134 124 -152 117 -7 -2 -11 -1 -8 4 9 14 -94
71 -189 104 -81 29 -102 32 -205 32 -96 0 -126 -4 -180 -24 -175 -64 -359
-249 -452 -456 -14 -33 -38 -86 -53 -119 -14 -32 -27 -57 -29 -55 -35 43 -182
206 -190 211 -5 4 -14 4 -20 1 -5 -3 -6 -1 -2 5 11 18 -169 176 -191 167 -7
-2 -12 1 -10 7 6 33 -371 241 -473 260 -8 2 -17 6 -20 10 -17 23 -379 108
-755 177 -167 31 -430 91 -496 112 -181 59 -361 136 -504 218 -85 48 -254 164
-294 202 l-23 22 7 -109z m3863 -827 c10 -12 17 -47 14 -78 -1 -9 -15 -22 -32
-29 -66 -27 -124 37 -86 95 13 19 25 25 55 25 21 0 43 -6 49 -13z" fill="#508eda"></path>
</g>
</svg>